<?xml version="1.0" encoding="UTF-8"?>
<svg id="Layer_5" data-name="Layer 5" xmlns="http://www.w3.org/2000/svg" viewBox="0 0 800 800">
  <defs>
    <style>
      .cls-1 {
        fill: #c7161d;
      }

      .cls-2 {
        fill: #da1a21;
      }

      .cls-3 {
        fill: #fff;
      }

      .cls-4 {
        fill: #ed2524;
      }

      .cls-5 {
        fill: #b01117;
      }
    </style>
  </defs>
  <path class="cls-2" d="M666.59,230.01v38.31c0,24.47-38.34,24.9-38.34,0v-113.73c0-38.8-60.63-39.32-60.63,0v75.43c0,24.33-38.34,24.84-38.34,0v-127.32c0-38.79-60.63-39.31-60.63,0v47.34c0,24.08-38.33,25.3-38.33,0V51.17c0-37.7-60.64-39.47-60.64,0v98.87c0,24.65-38.33,24.88-38.33,0v-47.34c0-38.67-60.64-39.36-60.64,0v118.36c0,24.48-38.33,24.93-38.33,0v-66.47c0-38.84-60.62-39.26-60.62,0v240.73c0,24.42-38.34,24.91-38.34,0v-165.32c0-37.56-60.63-39.27-60.63,0q0,344.68,0,339.98c0,38.83,60.63,39.33,60.63,0v-33.57c0-24.47,38.34-24.9,38.34,0v108.99c0,38.8,60.63,39.32,60.63,0v-70.69c0-24.33,38.34-24.84,38.34,0v122.58c0,38.79,60.62,39.31,60.62,0v-42.6c0-24.08,38.33-25.3,38.33,0v94.13c0,37.69,60.64,39.47,60.64,0v-94.13c0-24.65,38.33-24.88,38.33,0v42.59c0,38.67,60.64,39.36,60.64,0v-113.61c0-24.48,38.33-24.93,38.33,0v61.72c0,38.84,60.63,39.26,60.63,0v-231.24c0-24.42,38.34-24.91,38.34,0v155.83c0,37.56,60.63,39.27,60.63,0V230.01c0-38.83-60.63-39.33-60.63,0Z"/>
  <path class="cls-4" d="M400.48,770.52c-12.94.26-26.05-6.9-26.05-21.69v-94.13c0-30.09-47.82-30.32-47.82,0v42.6c0,31.88-51.14,32.16-51.14,0v-122.57c0-29.16-47.84-30.39-47.84,0v70.68c0,31.9-51.13,32.22-51.13,0v-108.99c0-30.16-47.84-30.4-47.84,0v33.57c0,31.53-51.14,32.58-51.14,0V230.01c0-30.5,51.14-32.02,51.14,0v165.32c0,30.22,47.84,30.38,47.84,0v-240.73c0-31.49,51.13-32.22,51.13,0v66.47c0,30.24,47.82,30.39,47.82,0v-118.36c0-30.89,51.15-32,51.15,0v47.34c0,30.16,47.82,30.51,47.82,0V51.17c0-30.92,51.14-31.52,51.14,0v98.87c0,29.81,47.82,30.68,47.82,0v-47.34c0-31.84,51.14-32.24,51.14,0v127.32c0,30.28,47.84,30.25,47.84,0v-75.43c0-30.98,51.13-31.96,51.13,0v113.73c0,30.29,47.84,30.38,47.84,0v-38.31c0-31.8,51.14-32.25,51.14,0v339.98c0,31.21-51.13,31.55-51.13,0v-155.82c0-30.04-47.84-30.37-47.84,0v231.24c0,31.99-51.14,32.17-51.14,0v-61.72c0-30.05-47.82-30.45-47.82,0v113.61c0,31.06-51.15,32.36-51.15,0v-42.6c0-30.16-47.83-30.46-47.83,0v94.13c0,14.14-12.47,21.44-25.09,21.69Z"/>
  <path class="cls-2" d="M374.3,152.56c-2.56,27.94-47.7,26.78-47.7-2.52v-47.34c0-32-51.15-30.89-51.15,0v118.36c0,30.39-47.82,30.24-47.82,0v-66.47c0-32.22-51.13-31.49-51.13,0v240.73c0,30.38-47.84,30.22-47.84,0v-165.32c0-32.02-51.14-30.5-51.14,0v339.98c0,32.58,51.14,31.53,51.14,0v-33.57c0-30.4,47.84-30.16,47.84,0v108.99c0,32.22,51.13,31.9,51.13,0v-70.68c0-30.39,47.84-29.16,47.84,0v122.57c0,32.16,51.14,31.88,51.14,0v-42.6c0-30.32,47.82-30.08,47.82,0v94.13c0,14.79,13.11,21.95,26.05,21.69,12.62-.25,25.09-7.55,25.09-21.69v-94.13c0-30.46,47.83-30.16,47.83,0v42.6c0,32.36,51.15,31.06,51.15,0v-113.61c0-30.45,47.82-30.06,47.82,0v61.72c0,32.17,51.14,31.99,51.14,0v-231.24c0-30.37,47.84-30.04,47.84,0v155.82c0,31.55,51.13,31.21,51.13,0v-196.67c-147.28-11.96-276.14-98.36-348.16-220.76Z"/>
  <g>
    <path class="cls-1" d="M581.95,479.17c-178.69,0-335.52-110.05-405.44-265.04v181.2c0,30.38-47.84,30.22-47.84,0v-165.32c0-32.02-51.14-30.5-51.14,0v339.98c0,32.58,51.14,31.53,51.14,0v-33.57c0-30.4,47.84-30.16,47.84,0v108.99c0,32.22,51.13,31.9,51.13,0v-70.68c0-30.39,47.84-29.16,47.84,0v122.57c0,32.16,51.14,31.88,51.14,0v-42.6c0-30.32,47.82-30.08,47.82,0v94.13c0,14.79,13.11,21.95,26.05,21.69,12.62-.25,25.09-7.55,25.09-21.69v-94.13c0-30.46,47.83-30.16,47.83,0v42.6c0,32.36,51.15,31.06,51.15,0v-113.61c0-30.45,47.82-30.06,47.82,0v61.72c0,32.17,51.14,31.99,51.14,0v-168.26c-13.7,1.32-27.55,2.02-41.55,2.02Z"/>
    <path class="cls-1" d="M671.33,469.84v100.15c0,31.55,51.13,31.21,51.13,0v-114.24c-16.65,5.7-33.71,10.42-51.13,14.09Z"/>
  </g>
  <g>
    <path class="cls-5" d="M482.28,602.56c-178.09,0-334.48-109.31-404.75-263.47v230.9c0,32.58,51.14,31.53,51.14,0v-33.57c0-30.4,47.84-30.16,47.84,0v108.99c0,32.22,51.13,31.9,51.13,0v-70.68c0-30.39,47.84-29.16,47.84,0v122.57c0,32.16,51.14,31.88,51.14,0v-42.6c0-30.32,47.82-30.08,47.82,0v94.13c0,14.79,13.11,21.95,26.05,21.69,12.62-.25,25.09-7.55,25.09-21.69v-94.13c0-30.46,47.83-30.16,47.83,0v42.6c0,32.36,51.15,31.06,51.15,0v-96.82c-13.93,1.36-28.02,2.09-42.26,2.09Z"/>
    <path class="cls-5" d="M671.33,559.22v10.77c0,31.55,51.13,31.21,51.13,0v-39.64c-16.36,10.7-33.43,20.36-51.13,28.88Z"/>
    <path class="cls-5" d="M572.36,593.08v52.33c0,32.17,51.14,31.99,51.14,0v-66.49c-16.65,5.73-33.72,10.46-51.14,14.17Z"/>
  </g>
  <path class="cls-3" d="M363.5,267.6l165.95,95.81c28.17,16.26,28.17,56.92,0,73.18l-165.95,95.81c-28.17,16.26-63.38-4.06-63.38-36.59v-191.63c0-32.53,35.21-52.85,63.38-36.59Z"/>
</svg>