<?xml version="1.0" encoding="UTF-8"?>
<svg xmlns="http://www.w3.org/2000/svg" xmlns:xlink="http://www.w3.org/1999/xlink" viewBox="0 0 800 800">
  <defs>
    <style>
      .cls-1 {
        fill: #231f20;
      }

      .cls-2 {
        fill: url(#radial-gradient);
      }

      .cls-3 {
        fill: #c7161d;
      }

      .cls-4 {
        fill: #da1a21;
      }

      .cls-5 {
        fill: #fff;
      }

      .cls-6 {
        fill: #ed2524;
      }

      .cls-7 {
        fill: #b01117;
      }
    </style>
    <radialGradient id="radial-gradient" cx="400.06" cy="400.15" fx="400.06" fy="400.15" r="317.01" gradientTransform="translate(-151.8 -429.32) scale(1.38 2.07)" gradientUnits="userSpaceOnUse">
      <stop offset="0" stop-color="#fff"/>
      <stop offset=".59" stop-color="#fdfdfd"/>
      <stop offset=".81" stop-color="#f6f6f7"/>
      <stop offset=".96" stop-color="#eaebec"/>
      <stop offset="1" stop-color="#e6e7e8"/>
    </radialGradient>
  </defs>
  <g id="Layer_3" data-name="Layer 3">
    <rect class="cls-2" width="800" height="800"/>
  </g>
  <g id="Layer_5" data-name="Layer 5">
    <rect class="cls-3" x="378.59" y="568.86" width="403.65" height="138.55" rx="16.53" ry="16.53"/>
    <g>
      <path class="cls-1" d="M75.14,646.94h-32.16l1.13,1.13v33.97h-10.76v-91.72h41.9c19.48,0,30.23,11.77,30.23,28.31s-10.76,28.31-30.35,28.31ZM75.26,600.52h-32.27l1.13,1.13v33.97l-1.13,1.13h32.16c13.13,0,19.25-7.7,19.25-18.12s-6.12-18.12-19.14-18.12Z"/>
      <path class="cls-1" d="M182.83,682.04h-62.05v-91.72h10.76v80.28l-1.13,1.25h52.43v10.19Z"/>
      <path class="cls-1" d="M278.29,682.04h-11.78l-9.74-22.08.57-1.13h-50.16l.57,1.13-9.74,22.08h-11.78l40.31-91.72h11.44l40.31,91.72ZM252.47,648.64l-1.13-1.13-16.19-36.8-2.72-9.17h-.23l-2.83,9.17-16.19,36.8-1.13,1.13h40.42Z"/>
      <path class="cls-1" d="M357.66,590.32l-38.16,53.22v38.5h-10.87v-38.5l-38.27-53.22h13.59l23.78,33.63,6.23,10.53h.23l6.11-10.53,23.89-33.63h13.48Z"/>
    </g>
    <g>
      <path class="cls-5" d="M482.79,665.39c-9.27,10.03-21.78,15.63-36.77,15.63-30.73,0-46.79-18.22-46.79-44.31s16.71-45.18,46.9-45.18c15.63,0,27.38,4.96,36.55,15.31l-12.61,12.61c-5.61-7.66-13.48-11.64-23.93-11.64-19.84,0-28.25,12.29-28.25,28.89s7.87,27.92,28.14,27.92c10.46,0,18.65-4.1,24.37-11.54l12.4,12.29Z"/>
      <path class="cls-5" d="M577.34,639.62c0,26.09-13.15,41.29-40.97,41.29s-41.18-14.99-41.18-41.29v-47.11h18.33v47.01c0,16.49,6.04,25.01,22.75,25.01s22.75-8.52,22.75-25.01v-47.01h18.33v47.11Z"/>
      <path class="cls-5" d="M641.17,679.83h-44.96v-87.33h44.1c20.16,0,30.51,11.75,30.51,25.23,0,6.9-2.7,12.94-8.19,16.6v.11c7.11,2.48,11.97,9.49,11.97,18.98,0,16.5-12.51,26.41-33.42,26.41ZM639.23,608.89h-26.41l1.72,1.72v15.1l-1.72,1.62h26.41c10.57,0,12.94-4.42,12.94-9.38,0-5.5-3.13-9.06-12.94-9.06ZM641.17,642.64h-28.36l1.72,1.73v17.36l-1.72,1.73h28.36c11.86,0,14.77-4.21,14.77-10.24s-3.45-10.57-14.77-10.57Z"/>
      <path class="cls-5" d="M761.39,679.83h-72.24v-87.33h72.24v16.39h-55.63l1.72,1.72v15.63l-1.72,1.72h50.46v16.39h-50.46l1.72,1.72v15.63l-1.72,1.73h55.63v16.39Z"/>
    </g>
    <g>
      <path class="cls-4" d="M544.71,226.14v20.8c0,13.28-20.81,13.51-20.81,0v-61.74c0-21.06-32.91-21.34-32.91,0v40.95c0,13.21-20.81,13.49-20.81,0v-69.11c0-21.06-32.91-21.34-32.91,0v25.7c0,13.07-20.81,13.74-20.81,0v-53.67c0-20.46-32.92-21.42-32.92,0v53.67c0,13.38-20.81,13.51-20.81,0v-25.7c0-20.99-32.92-21.36-32.92,0v64.25c0,13.29-20.81,13.53-20.81,0v-36.08c0-21.08-32.91-21.31-32.91,0v130.68c0,13.26-20.81,13.52-20.81,0v-89.74c0-20.39-32.91-21.31-32.91,0q0,187.1,0,184.55c0,21.08,32.91,21.35,32.91,0v-18.22c0-13.28,20.81-13.51,20.81,0v59.16c0,21.06,32.91,21.34,32.91,0v-38.37c0-13.21,20.81-13.49,20.81,0v66.54c0,21.06,32.91,21.34,32.91,0v-23.12c0-13.07,20.81-13.74,20.81,0v51.09c0,20.46,32.92,21.42,32.92,0v-51.09c0-13.38,20.81-13.51,20.81,0v23.12c0,20.99,32.92,21.36,32.92,0v-61.67c0-13.29,20.81-13.53,20.81,0v33.51c0,21.08,32.91,21.31,32.91,0v-125.52c0-13.26,20.81-13.52,20.81,0v84.59c0,20.39,32.91,21.31,32.91,0v-184.55c0-21.08-32.91-21.35-32.91,0Z"/>
      <path class="cls-6" d="M400.26,519.54c-7.03.14-14.14-3.74-14.14-11.77v-51.1c0-16.33-25.96-16.46-25.96,0v23.12c0,17.3-27.76,17.46-27.76,0v-66.54c0-15.83-25.97-16.49-25.97,0v38.37c0,17.32-27.76,17.49-27.76,0v-59.16c0-16.37-25.97-16.5-25.97,0v18.22c0,17.11-27.76,17.68-27.76,0v-184.55c0-16.56,27.76-17.38,27.76,0v89.74c0,16.4,25.97,16.49,25.97,0v-130.68c0-17.09,27.76-17.49,27.76,0v36.08c0,16.42,25.96,16.49,25.96,0v-64.25c0-16.77,27.77-17.37,27.77,0v25.7c0,16.37,25.96,16.56,25.96,0v-53.67c0-16.79,27.76-17.11,27.76,0v53.67c0,16.18,25.96,16.65,25.96,0v-25.7c0-17.28,27.76-17.5,27.76,0v69.11c0,16.44,25.97,16.42,25.97,0v-40.95c0-16.82,27.75-17.35,27.75,0v61.74c0,16.44,25.97,16.49,25.97,0v-20.8c0-17.26,27.76-17.51,27.76,0v184.55c0,16.94-27.75,17.13-27.75,0v-84.59c0-16.31-25.97-16.49-25.97,0v125.52c0,17.36-27.76,17.46-27.76,0v-33.5c0-16.31-25.96-16.53-25.96,0v61.67c0,16.86-27.76,17.57-27.76,0v-23.12c0-16.37-25.96-16.53-25.96,0v51.09c0,7.67-6.77,11.64-13.62,11.77Z"/>
      <path class="cls-4" d="M386.05,184.1c-1.39,15.17-25.89,14.54-25.89-1.37v-25.7c0-17.37-27.77-16.77-27.77,0v64.25c0,16.5-25.96,16.42-25.96,0v-36.08c0-17.49-27.76-17.09-27.76,0v130.68c0,16.49-25.97,16.4-25.97,0v-89.74c0-17.38-27.76-16.56-27.76,0v184.55c0,17.68,27.76,17.11,27.76,0v-18.22c0-16.5,25.97-16.37,25.97,0v59.16c0,17.49,27.76,17.32,27.76,0v-38.37c0-16.49,25.97-15.83,25.97,0v66.54c0,17.46,27.76,17.31,27.76,0v-23.12c0-16.46,25.96-16.33,25.96,0v51.1c0,8.03,7.11,11.91,14.14,11.77,6.85-.14,13.62-4.1,13.62-11.77v-51.09c0-16.53,25.96-16.37,25.96,0v23.12c0,17.57,27.76,16.86,27.76,0v-61.67c0-16.53,25.96-16.32,25.96,0v33.5c0,17.46,27.76,17.36,27.76,0v-125.52c0-16.49,25.97-16.31,25.97,0v84.59c0,17.13,27.75,16.94,27.75,0v-106.76c-79.95-6.49-149.9-53.39-188.99-119.83Z"/>
      <g>
        <path class="cls-3" d="M498.77,361.39c-97,0-182.13-59.74-220.09-143.87v98.36c0,16.49-25.97,16.4-25.97,0v-89.74c0-17.38-27.76-16.56-27.76,0v184.55c0,17.68,27.76,17.11,27.76,0v-18.22c0-16.5,25.97-16.37,25.97,0v59.16c0,17.49,27.76,17.32,27.76,0v-38.37c0-16.49,25.97-15.83,25.97,0v66.54c0,17.46,27.76,17.31,27.76,0v-23.12c0-16.46,25.96-16.33,25.96,0v51.1c0,8.03,7.11,11.91,14.14,11.77,6.85-.14,13.62-4.1,13.62-11.77v-51.09c0-16.53,25.96-16.37,25.96,0v23.12c0,17.57,27.76,16.86,27.76,0v-61.67c0-16.53,25.96-16.32,25.96,0v33.5c0,17.46,27.76,17.36,27.76,0v-91.34c-7.44.72-14.96,1.1-22.55,1.1Z"/>
        <path class="cls-3" d="M547.29,356.32v54.37c0,17.13,27.75,16.94,27.75,0v-62.01c-9.04,3.09-18.3,5.65-27.75,7.65Z"/>
      </g>
      <g>
        <path class="cls-7" d="M444.67,428.37c-96.67,0-181.56-59.34-219.71-143.02v125.34c0,17.68,27.76,17.11,27.76,0v-18.22c0-16.5,25.97-16.37,25.97,0v59.16c0,17.49,27.76,17.32,27.76,0v-38.37c0-16.49,25.97-15.83,25.97,0v66.54c0,17.46,27.76,17.31,27.76,0v-23.12c0-16.46,25.96-16.33,25.96,0v51.1c0,8.03,7.11,11.91,14.14,11.77,6.85-.14,13.62-4.1,13.62-11.77v-51.09c0-16.53,25.96-16.37,25.96,0v23.12c0,17.57,27.76,16.86,27.76,0v-52.56c-7.56.74-15.21,1.13-22.94,1.13Z"/>
        <path class="cls-7" d="M547.29,404.84v5.84c0,17.13,27.75,16.94,27.75,0v-21.52c-8.88,5.81-18.15,11.05-27.75,15.68Z"/>
        <path class="cls-7" d="M493.56,423.22v28.41c0,17.46,27.76,17.36,27.76,0v-36.09c-9.04,3.11-18.3,5.68-27.76,7.69Z"/>
      </g>
      <path class="cls-5" d="M380.19,246.54l90.08,52.01c15.29,8.83,15.29,30.9,0,39.72l-90.08,52.01c-15.29,8.83-34.4-2.21-34.4-19.86v-104.02c0-17.66,19.11-28.69,34.4-19.86Z"/>
    </g>
  </g>
</svg>