<?xml version="1.0" encoding="UTF-8"?>
<svg id="Layer_5" data-name="Layer 5" xmlns="http://www.w3.org/2000/svg" viewBox="0 0 1620.46 602.01">
  <defs>
    <style>
      .cls-1 {
        fill: #231f20;
      }

      .cls-2 {
        fill: #c7161d;
      }

      .cls-3 {
        fill: #da1a21;
      }

      .cls-4 {
        fill: #fff;
      }

      .cls-5 {
        fill: #ed2524;
      }

      .cls-6 {
        fill: #b01117;
      }
    </style>
  </defs>
  <rect class="cls-2" x="1054.84" y="206.89" width="535.17" height="183.69" rx="22.93" ry="22.93"/>
  <g>
    <path class="cls-4" d="M1192.94,334.87c-12.29,13.29-28.88,20.73-48.74,20.73-40.74,0-62.04-24.16-62.04-58.75s22.16-59.89,62.18-59.89c20.73,0,36.31,6.58,48.46,20.3l-16.72,16.72c-7.43-10.15-17.87-15.44-31.73-15.44-26.3,0-37.45,16.29-37.45,38.31s10.43,37.02,37.31,37.02c13.87,0,24.73-5.43,32.3-15.3l16.44,16.29Z"/>
    <path class="cls-4" d="M1318.3,300.71c0,34.59-17.44,54.75-54.32,54.75s-54.6-19.87-54.6-54.75v-62.47h24.3v62.32c0,21.87,8.01,33.16,30.16,33.16s30.16-11.29,30.16-33.16v-62.32h24.3v62.47Z"/>
    <path class="cls-4" d="M1402.92,354.03h-59.61v-115.78h58.46c26.73,0,40.45,15.58,40.45,33.45,0,9.15-3.57,17.15-10.86,22.01v.14c9.43,3.29,15.87,12.58,15.87,25.16,0,21.87-16.58,35.02-44.31,35.02ZM1400.35,259.97h-35.02l2.29,2.29v20.01l-2.29,2.14h35.02c14.01,0,17.15-5.86,17.15-12.44,0-7.29-4.15-12.01-17.15-12.01ZM1402.92,304.71h-37.59l2.29,2.29v23.01l-2.29,2.29h37.59c15.72,0,19.58-5.58,19.58-13.58s-4.57-14.01-19.58-14.01Z"/>
    <path class="cls-4" d="M1562.31,354.03h-95.77v-115.78h95.77v21.73h-73.76l2.29,2.29v20.73l-2.29,2.29h66.9v21.73h-66.9l2.29,2.29v20.73l-2.29,2.29h73.76v21.73Z"/>
  </g>
  <g>
    <path class="cls-1" d="M646.8,315.23h-43.84l1.54,1.54v46.31h-14.66v-125.03h57.11c26.55,0,41.21,16.05,41.21,38.59s-14.66,38.59-41.37,38.59ZM646.95,251.95h-43.99l1.54,1.54v46.31l-1.54,1.54h43.84c17.9,0,26.24-10.5,26.24-24.7s-8.34-24.7-26.09-24.7Z"/>
    <path class="cls-1" d="M793.59,363.08h-84.59v-125.03h14.66v109.44l-1.54,1.7h71.47v13.89Z"/>
    <path class="cls-1" d="M923.72,363.08h-16.05l-13.28-30.1.77-1.54h-68.38l.77,1.54-13.28,30.1h-16.05l54.95-125.03h15.59l54.95,125.03ZM888.52,317.55l-1.54-1.54-22.07-50.17-3.7-12.5h-.31l-3.86,12.5-22.07,50.17-1.54,1.54h55.11Z"/>
    <path class="cls-1" d="M1031.93,238.05l-52.02,72.55v52.48h-14.82v-52.48l-52.17-72.55h18.52l32.41,45.85,8.49,14.35h.31l8.33-14.35,32.57-45.85h18.37Z"/>
  </g>
  <g>
    <path class="cls-3" d="M506.48,174.37v28.44c0,18.17-28.47,18.48-28.47,0v-84.43c0-28.81-45.01-29.19-45.01,0v56c0,18.06-28.47,18.44-28.47,0v-94.53c0-28.8-45.01-29.19-45.01,0v35.15c0,17.88-28.46,18.79-28.46,0V41.59c0-27.99-45.02-29.3-45.02,0v73.4c0,18.3-28.46,18.47-28.46,0v-35.15c0-28.71-45.02-29.22-45.02,0v87.87c0,18.17-28.46,18.51-28.46,0v-49.35c0-28.84-45.01-29.15-45.01,0v178.72c0,18.13-28.47,18.49-28.47,0v-122.73c0-27.88-45.01-29.15-45.01,0q0,255.9,0,252.4c0,28.83,45.01,29.2,45.01,0v-24.92c0-18.17,28.47-18.48,28.47,0v80.91c0,28.81,45.01,29.19,45.01,0v-52.48c0-18.06,28.47-18.44,28.47,0v91c0,28.8,45.01,29.19,45.01,0v-31.62c0-17.88,28.46-18.79,28.46,0v69.88c0,27.98,45.02,29.3,45.02,0v-69.88c0-18.3,28.46-18.47,28.46,0v31.62c0,28.71,45.02,29.22,45.02,0v-84.35c0-18.17,28.46-18.51,28.46,0v45.82c0,28.84,45.01,29.15,45.01,0v-171.68c0-18.13,28.47-18.49,28.47,0v115.69c0,27.88,45.01,29.15,45.01,0v-252.4c0-28.83-45.01-29.2-45.01,0Z"/>
    <path class="cls-5" d="M308.92,575.65c-9.61.19-19.34-5.12-19.34-16.1v-69.88c0-22.34-35.5-22.51-35.5,0v31.62c0,23.67-37.96,23.88-37.96,0v-91c0-21.65-35.51-22.56-35.51,0v52.48c0,23.69-37.96,23.92-37.96,0v-80.91c0-22.39-35.51-22.57-35.51,0v24.92c0,23.41-37.96,24.19-37.96,0v-252.4c0-22.64,37.96-23.77,37.96,0v122.73c0,22.43,35.51,22.55,35.51,0V118.38c0-23.38,37.96-23.92,37.96,0v49.35c0,22.45,35.5,22.56,35.5,0v-87.87c0-22.93,37.97-23.76,37.97,0v35.14c0,22.39,35.5,22.65,35.5,0V41.59c0-22.96,37.97-23.4,37.97,0v73.4c0,22.13,35.5,22.78,35.5,0v-35.15c0-23.63,37.96-23.93,37.96,0v94.53c0,22.48,35.51,22.46,35.51,0v-56c0-23,37.96-23.72,37.96,0v84.44c0,22.49,35.51,22.55,35.51,0v-28.44c0-23.61,37.96-23.94,37.96,0v252.4c0,23.17-37.96,23.42-37.96,0v-115.69c0-22.3-35.51-22.55-35.51,0v171.67c0,23.75-37.96,23.88-37.96,0v-45.82c0-22.31-35.5-22.61-35.5,0v84.35c0,23.06-37.97,24.02-37.97,0v-31.62c0-22.39-35.51-22.61-35.51,0v69.88c0,10.5-9.26,15.92-18.63,16.1Z"/>
    <path class="cls-3" d="M289.49,116.87c-1.9,20.74-35.41,19.89-35.41-1.87v-35.15c0-23.76-37.97-22.93-37.97,0v87.87c0,22.56-35.5,22.45-35.5,0v-49.35c0-23.92-37.96-23.38-37.96,0v178.72c0,22.55-35.51,22.43-35.51,0v-122.73c0-23.77-37.96-22.64-37.96,0v252.4c0,24.19,37.96,23.4,37.96,0v-24.92c0-22.57,35.51-22.39,35.51,0v80.91c0,23.92,37.96,23.69,37.96,0v-52.48c0-22.56,35.51-21.65,35.51,0v91c0,23.88,37.96,23.67,37.96,0v-31.62c0-22.51,35.5-22.33,35.5,0v69.88c0,10.98,9.73,16.29,19.34,16.1,9.37-.19,18.63-5.61,18.63-16.1v-69.88c0-22.61,35.51-22.39,35.51,0v31.62c0,24.02,37.97,23.06,37.97,0v-84.35c0-22.61,35.5-22.31,35.5,0v45.82c0,23.88,37.96,23.75,37.96,0v-171.67c0-22.55,35.51-22.3,35.51,0v115.69c0,23.42,37.96,23.17,37.96,0v-146.01c-109.34-8.88-205.01-73.02-258.48-163.89Z"/>
    <g>
      <path class="cls-2" d="M443.65,359.34c-132.66,0-249.1-81.71-301.01-196.77v134.53c0,22.55-35.51,22.43-35.51,0v-122.73c0-23.77-37.96-22.64-37.96,0v252.4c0,24.19,37.96,23.4,37.96,0v-24.92c0-22.57,35.51-22.39,35.51,0v80.91c0,23.92,37.96,23.69,37.96,0v-52.48c0-22.56,35.51-21.65,35.51,0v91c0,23.88,37.96,23.67,37.96,0v-31.62c0-22.51,35.5-22.33,35.5,0v69.88c0,10.98,9.73,16.29,19.34,16.1,9.37-.19,18.63-5.61,18.63-16.1v-69.88c0-22.61,35.51-22.39,35.51,0v31.62c0,24.02,37.97,23.06,37.97,0v-84.35c0-22.61,35.5-22.31,35.5,0v45.82c0,23.88,37.96,23.75,37.96,0v-124.92c-10.17.98-20.46,1.5-30.85,1.5Z"/>
      <path class="cls-2" d="M510.01,352.42v74.35c0,23.42,37.96,23.17,37.96,0v-84.81c-12.36,4.23-25.03,7.73-37.96,10.46Z"/>
    </g>
    <g>
      <path class="cls-6" d="M369.66,450.95c-132.21,0-248.32-81.15-300.49-195.6v171.42c0,24.19,37.96,23.4,37.96,0v-24.92c0-22.57,35.51-22.39,35.51,0v80.91c0,23.92,37.96,23.69,37.96,0v-52.48c0-22.56,35.51-21.65,35.51,0v91c0,23.88,37.96,23.67,37.96,0v-31.62c0-22.51,35.5-22.33,35.5,0v69.88c0,10.98,9.73,16.29,19.34,16.1,9.37-.19,18.63-5.61,18.63-16.1v-69.88c0-22.61,35.51-22.39,35.51,0v31.62c0,24.02,37.97,23.06,37.97,0v-71.88c-10.34,1.01-20.8,1.55-31.37,1.55Z"/>
      <path class="cls-6" d="M510.01,418.78v7.99c0,23.42,37.96,23.17,37.96,0v-29.43c-12.14,7.95-24.82,15.12-37.96,21.44Z"/>
      <path class="cls-6" d="M436.53,443.91v38.85c0,23.88,37.96,23.75,37.96,0v-49.36c-12.36,4.25-25.03,7.77-37.96,10.52Z"/>
    </g>
    <path class="cls-4" d="M281.47,202.27l123.21,71.13c20.91,12.07,20.91,42.26,0,54.33l-123.21,71.13c-20.91,12.07-47.05-3.02-47.05-27.16v-142.27c0-24.15,26.14-39.24,47.05-27.16Z"/>
  </g>
</svg>